<?xml version="1.0" encoding="UTF-8"?>
<svg xmlns="http://www.w3.org/2000/svg" viewBox="0 0 700 700">
  <defs>
    <linearGradient id="gold-fill" x1="0%" y1="0%" x2="100%" y2="100%">
      <stop offset="0%" stop-color="#F5E7A3" />
      <stop offset="50%" stop-color="#D4AF37" />
      <stop offset="100%" stop-color="#B8860B" />
    </linearGradient>
    <filter id="glow" x="-20%" y="-20%" width="140%" height="140%">
      <feGaussianBlur stdDeviation="5" result="blur" />
      <feComposite in="SourceGraphic" in2="blur" operator="over" />
    </filter>
  </defs>
  <rect width="700" height="700" fill="black"/>
  
  <!-- The exact logo from the attached image -->
  <g transform="translate(80, 50)" filter="url(#glow)">
    <!-- Main V -->
    <path d="M270,80 L470,500 L70,500 Z" fill="none" stroke="url(#gold-fill)" stroke-width="18"/>
    
    <!-- Top flourish -->
    <path d="M270,40
             C290,50 300,70 280,90
             C260,110 280,130 300,120"
          fill="none" stroke="url(#gold-fill)" stroke-width="10"/>
    
    <path d="M270,40
             C250,50 240,70 260,90
             C280,110 260,130 240,120"
          fill="none" stroke="url(#gold-fill)" stroke-width="10"/>
    
    <!-- Left side flourishes -->
    <path d="M70,500
             C40,460 60,420 100,450
             C140,480 160,440 140,410"
          fill="none" stroke="url(#gold-fill)" stroke-width="10"/>
          
    <path d="M110,460
             C90,430 110,410 130,430
             C150,450 140,480 120,460"
          fill="none" stroke="url(#gold-fill)" stroke-width="7"/>
          
    <path d="M140,420
             C120,400 130,380 150,390
             C170,400 160,420 140,420"
          fill="none" stroke="url(#gold-fill)" stroke-width="5"/>
    
    <!-- Right side flourishes -->
    <path d="M470,500
             C500,460 480,420 440,450
             C400,480 380,440 400,410"
          fill="none" stroke="url(#gold-fill)" stroke-width="10"/>
          
    <path d="M430,460
             C450,430 430,410 410,430
             C390,450 400,480 420,460"
          fill="none" stroke="url(#gold-fill)" stroke-width="7"/>
          
    <path d="M400,420
             C420,400 410,380 390,390
             C370,400 380,420 400,420"
          fill="none" stroke="url(#gold-fill)" stroke-width="5"/>
          
    <!-- Middle V flourishes -->
    <path d="M270,100
             C330,200 370,300 420,440"
          fill="none" stroke="url(#gold-fill)" stroke-width="12"/>
          
    <path d="M270,100
             C210,200 170,300 120,440"
          fill="none" stroke="url(#gold-fill)" stroke-width="12"/>
          
    <!-- Middle flourishes -->
    <path d="M230,250
             C210,270 220,300 240,280
             C260,260 250,230 230,250"
          fill="none" stroke="url(#gold-fill)" stroke-width="5"/>
          
    <path d="M310,250
             C330,270 320,300 300,280
             C280,260 290,230 310,250"
          fill="none" stroke="url(#gold-fill)" stroke-width="5"/>
    
    <!-- Diamond accents -->
    <path d="M270,30 L285,45 L270,60 L255,45 Z" fill="url(#gold-fill)"/>
    <path d="M270,520 L285,535 L270,550 L255,535 Z" fill="url(#gold-fill)"/>
    <path d="M50,490 L65,505 L50,520 L35,505 Z" fill="url(#gold-fill)"/>
    <path d="M490,490 L505,505 L490,520 L475,505 Z" fill="url(#gold-fill)"/>
  </g>
</svg>