<?xml version="1.0" encoding="UTF-8"?>
<svg xmlns="http://www.w3.org/2000/svg" viewBox="0 0 600 600">
  <defs>
    <linearGradient id="gold-gradient" x1="0%" y1="0%" x2="100%" y2="100%">
      <stop offset="0%" stop-color="#F5E7A3" />
      <stop offset="50%" stop-color="#D4AF37" />
      <stop offset="100%" stop-color="#B8860B" />
    </linearGradient>
    <filter id="glow" x="-20%" y="-20%" width="140%" height="140%">
      <feGaussianBlur stdDeviation="5" result="blur" />
      <feComposite in="SourceGraphic" in2="blur" operator="over" />
    </filter>
  </defs>
  <rect width="600" height="600" fill="black" />
  
  <!-- Ornate V Logo based on the supplied image -->
  <g filter="url(#glow)" transform="translate(50, 50) scale(0.83)">
    <!-- Main V shape -->
    <path d="M300,100 L500,450 L100,450 Z" fill="none" stroke="url(#gold-gradient)" stroke-width="16"/>
    
    <!-- Inner V shape -->
    <path d="M300,170 L440,420 L160,420 Z" fill="none" stroke="url(#gold-gradient)" stroke-width="8"/>
    
    <!-- Top fleur-de-lis ornament -->
    <path d="M300,70 
             C310,50 325,60 320,80
             C315,100 330,100 340,80
             C350,60 330,40 300,70
             C270,40 250,60 260,80
             C270,100 285,100 280,80
             C275,60 290,50 300,70Z" 
          fill="url(#gold-gradient)"/>

    <!-- Left side scrollwork -->
    <path d="M120,440 
             C80,420 70,380 100,360
             C130,340 110,300 80,320
             C50,340 80,380 100,360" 
          fill="none" stroke="url(#gold-gradient)" stroke-width="8"/>
          
    <path d="M140,430 
             C120,410 130,380 150,370
             C170,360 160,330 140,350
             C120,370 130,410 150,390" 
          fill="none" stroke="url(#gold-gradient)" stroke-width="6"/>
             
    <path d="M170,420 
             C160,400 180,380 190,390
             C200,400 180,410 170,420" 
          fill="none" stroke="url(#gold-gradient)" stroke-width="4"/>

    <!-- Right side scrollwork (mirrored) -->
    <path d="M480,440 
             C520,420 530,380 500,360
             C470,340 490,300 520,320
             C550,340 520,380 500,360" 
          fill="none" stroke="url(#gold-gradient)" stroke-width="8"/>
          
    <path d="M460,430 
             C480,410 470,380 450,370
             C430,360 440,330 460,350
             C480,370 470,410 450,390" 
          fill="none" stroke="url(#gold-gradient)" stroke-width="6"/>
             
    <path d="M430,420 
             C440,400 420,380 410,390
             C400,400 420,410 430,420" 
          fill="none" stroke="url(#gold-gradient)" stroke-width="4"/>
             
    <!-- Top flourishes -->
    <path d="M300,100 
             C320,120 330,150 320,180
             C310,210 325,230 340,220" 
          fill="none" stroke="url(#gold-gradient)" stroke-width="6"/>
          
    <path d="M300,100 
             C280,120 270,150 280,180
             C290,210 275,230 260,220" 
          fill="none" stroke="url(#gold-gradient)" stroke-width="6"/>
             
    <!-- Middle flourishes -->
    <path d="M250,250 
             C220,260 210,290 240,300
             C270,310 250,340 220,330" 
          fill="none" stroke="url(#gold-gradient)" stroke-width="5"/>
             
    <path d="M350,250 
             C380,260 390,290 360,300
             C330,310 350,340 380,330" 
          fill="none" stroke="url(#gold-gradient)" stroke-width="5"/>
             
    <!-- Diamond accents -->
    <path d="M300,50 L315,65 L300,80 L285,65 Z" fill="url(#gold-gradient)"/>
    <path d="M300,470 L315,485 L300,500 L285,485 Z" fill="url(#gold-gradient)"/>
    <path d="M80,430 L95,445 L80,460 L65,445 Z" fill="url(#gold-gradient)"/>
    <path d="M520,430 L535,445 L520,460 L505,445 Z" fill="url(#gold-gradient)"/>
  </g>
</svg>