<?xml version="1.0" encoding="UTF-8"?>
<svg xmlns="http://www.w3.org/2000/svg" viewBox="0 0 600 600" width="100%" height="100%">
  <defs>
    <linearGradient id="gold-gradient" x1="0%" y1="0%" x2="100%" y2="100%">
      <stop offset="0%" stop-color="#F5E7A3" />
      <stop offset="50%" stop-color="#D4AF37" />
      <stop offset="100%" stop-color="#B8860B" />
    </linearGradient>
    <filter id="glow" x="-50%" y="-50%" width="200%" height="200%">
      <feGaussianBlur stdDeviation="5" result="blur" />
      <feComposite in="SourceGraphic" in2="blur" operator="over" />
    </filter>
  </defs>
  <g transform="translate(50, 50)">
    <path d="M250,0 
             C320,20 380,60 400,150
             C420,240 450,320 350,450
             C250,580 150,450 100,450
             C50,450 -20,420 10,320
             C40,220 100,120 250,0Z" 
          fill="none" stroke="url(#gold-gradient)" stroke-width="2" opacity="0.3"/>
          
    <!-- Main V shape with decorations - from the actual image -->
    <g filter="url(#glow)">
      <path d="M250,50 
               C270,55 290,65 300,85
               L425,400 
               C435,420 430,440 410,450
               L250,450 
               C230,450 220,440 200,450
               L75,450 
               C55,440 50,420 60,400
               L185,85 
               C195,65 220,55 250,50Z" 
            fill="black"/>
      <path d="M250,0 
               A10,10 0 0 1 250,0
               L470,400 
               A10,10 0 0 1 470,400
               L30,400 
               A10,10 0 0 1 30,400
               Z" 
            fill="none" stroke="url(#gold-gradient)" stroke-width="8"/>
            
      <!-- The ornate V from the image with flourishes -->
      <path d="M250,100 L400,400 L100,400 Z" 
            fill="none" stroke="url(#gold-gradient)" stroke-width="6"/>
      <path d="M250,100 
               C330,150 370,250 400,400" 
            fill="none" stroke="url(#gold-gradient)" stroke-width="10"/>
      <path d="M250,100 
               C170,150 130,250 100,400" 
            fill="none" stroke="url(#gold-gradient)" stroke-width="10"/>
            
      <!-- Ornate decorations from the image -->
      <path d="M250,50 
               C270,30 280,70 250,80
               C220,90 230,30 250,50Z" 
            fill="none" stroke="url(#gold-gradient)" stroke-width="4"/>
      <path d="M100,400 
               C80,380 60,420 80,440
               C100,460 120,420 100,400Z" 
            fill="none" stroke="url(#gold-gradient)" stroke-width="4"/>
      <path d="M400,400 
               C420,380 440,420 420,440
               C400,460 380,420 400,400Z" 
            fill="none" stroke="url(#gold-gradient)" stroke-width="4"/>
               
      <!-- Flourishes -->
      <path d="M250,50 
               C290,60 300,90 270,110
               C240,130 260,160 290,150" 
            fill="none" stroke="url(#gold-gradient)" stroke-width="4"/>
      <path d="M250,50 
               C210,60 200,90 230,110
               C260,130 240,160 210,150" 
            fill="none" stroke="url(#gold-gradient)" stroke-width="4"/>
               
      <!-- Side flourishes -->
      <path d="M100,400 
               C80,350 120,330 150,370
               C180,410 220,380 220,350" 
            fill="none" stroke="url(#gold-gradient)" stroke-width="4"/>
      <path d="M400,400 
               C420,350 380,330 350,370
               C320,410 280,380 280,350" 
            fill="none" stroke="url(#gold-gradient)" stroke-width="4"/>
               
      <!-- Additional detailed flourishes inspired by the image -->
      <path d="M250,50 
               C270,45 290,40 270,30
               C250,20 230,40 250,50" 
            fill="none" stroke="url(#gold-gradient)" stroke-width="3"/>
      <path d="M250,70 
               C265,75 280,80 265,90
               C250,100 235,80 250,70" 
            fill="none" stroke="url(#gold-gradient)" stroke-width="3"/>
               
      <!-- Diamond accents -->
      <path d="M250,20 L260,30 L250,40 L240,30 Z" 
            fill="url(#gold-gradient)"/>
      <path d="M250,460 L260,470 L250,480 L240,470 Z" 
            fill="url(#gold-gradient)"/>
      <path d="M80,400 L90,410 L80,420 L70,410 Z" 
            fill="url(#gold-gradient)"/>
      <path d="M420,400 L430,410 L420,420 L410,410 Z" 
            fill="url(#gold-gradient)"/>
    </g>
  </g>
</svg>