<?xml version="1.0" encoding="UTF-8"?>
<svg xmlns="http://www.w3.org/2000/svg" viewBox="0 0 400 400">
  <defs>
    <linearGradient id="gold-gradient" x1="0%" y1="0%" x2="100%" y2="100%">
      <stop offset="0%" stop-color="#F5E7A3" />
      <stop offset="30%" stop-color="#D4AF37" />
      <stop offset="70%" stop-color="#B8860B" />
      <stop offset="100%" stop-color="#D4AF37" />
    </linearGradient>
  </defs>
  <g fill="url(#gold-gradient)">
    <path d="M200 20C200 20 95 150 65 315C65 315 110 345 135 345C135 345 180 150 200 100C220 150 265 345 265 345C290 345 335 315 335 315C305 150 200 20 200 20Z"/>
    <path d="M200 20C180 60 120 150 100 280C100 280 125 300 140 300C140 300 175 150 200 80C225 150 260 300 260 300C275 300 300 280 300 280C280 150 220 60 200 20Z"/>
    <path d="M200 50C190 80 140 180 130 280C130 280 145 290 155 290C155 290 180 150 200 100C220 150 245 290 245 290C255 290 270 280 270 280C260 180 210 80 200 50Z"/>
    <!-- Decorative flourishes -->
    <path d="M200 25C210 15 220 30 215 40C210 50 190 50 185 40C180 30 190 15 200 25Z"/>
    <path d="M120 300C125 310 140 310 145 300C150 290 135 280 125 285C115 290 115 290 120 300Z"/>
    <path d="M280 300C275 310 260 310 255 300C250 290 265 280 275 285C285 290 285 290 280 300Z"/>
    <path d="M70 310C80 315 90 305 85 295C80 285 65 285 60 295C55 305 60 305 70 310Z"/>
    <path d="M330 310C320 315 310 305 315 295C320 285 335 285 340 295C345 305 340 305 330 310Z"/>
    <!-- Swirls -->
    <path d="M110 250C100 220 110 180 140 150C130 180 130 220 150 240C130 230 120 280 110 250Z"/>
    <path d="M290 250C300 220 290 180 260 150C270 180 270 220 250 240C270 230 280 280 290 250Z"/>
    <path d="M160 80C140 60 130 30 150 20C140 40 150 60 170 70C150 70 180 100 160 80Z"/>
    <path d="M240 80C260 60 270 30 250 20C260 40 250 60 230 70C250 70 220 100 240 80Z"/>
  </g>
</svg>